<?xml version="1.0" encoding="UTF-8" standalone="no"?>
<!DOCTYPE svg PUBLIC "-//W3C//DTD SVG 1.1//EN"
 "http://www.w3.org/Graphics/SVG/1.1/DTD/svg11.dtd">
<!-- Generated by graphviz version 2.44.1 (20200629.0846)
 -->
<!-- Title: dependencies Pages: 1 -->
<svg width="504pt" height="211pt"
 viewBox="0.00 0.00 504.00 211.00" xmlns="http://www.w3.org/2000/svg" xmlns:xlink="http://www.w3.org/1999/xlink">
<g id="graph0" class="graph" transform="scale(1 1) rotate(0) translate(4 207)">
<title>dependencies</title>
<polygon fill="white" stroke="transparent" points="-4,4 -4,-207 500,-207 500,4 -4,4"/>
<text text-anchor="start" x="227.01" y="-42.4" font-family="sans-serif" font-weight="bold" font-size="14.00">Legend</text>
<polygon fill="#ffffb3" stroke="transparent" points="14,-10 14,-30 34,-30 34,-10 14,-10"/>
<text text-anchor="start" x="37.63" y="-15.4" font-family="sans-serif" font-size="14.00"> &#160;Declarations</text>
<polygon fill="#8dd3c7" stroke="transparent" points="127,-10 127,-30 147,-30 147,-10 127,-10"/>
<text text-anchor="start" x="150.73" y="-15.4" font-family="sans-serif" font-size="14.00"> &#160;Module</text>
<polygon fill="#80b1d3" stroke="transparent" points="213,-10 213,-30 233,-30 233,-10 213,-10"/>
<text text-anchor="start" x="236.78" y="-15.4" font-family="sans-serif" font-size="14.00"> &#160;Bootstrap</text>
<polygon fill="#fdb462" stroke="transparent" points="310,-10 310,-30 330,-30 330,-10 310,-10"/>
<text text-anchor="start" x="333.67" y="-15.4" font-family="sans-serif" font-size="14.00"> &#160;Providers</text>
<polygon fill="#fb8072" stroke="transparent" points="406,-10 406,-30 426,-30 426,-10 406,-10"/>
<text text-anchor="start" x="429.73" y="-15.4" font-family="sans-serif" font-size="14.00"> &#160;Exports</text>
<g id="clust1" class="cluster">
<title>cluster_TopicModule</title>
<polygon fill="none" stroke="black" stroke-dasharray="1,5" points="81.5,-70 81.5,-195 414.5,-195 414.5,-70 81.5,-70"/>
</g>
<g id="clust6" class="cluster">
<title>cluster_TopicModule_providers</title>
<polygon fill="none" stroke="black" points="89.5,-78 89.5,-130 406.5,-130 406.5,-78 89.5,-78"/>
</g>
<!-- CategoryService -->
<g id="node1" class="node">
<title>CategoryService</title>
<ellipse fill="#fdb462" stroke="black" cx="323.5" cy="-104" rx="75.28" ry="18"/>
<text text-anchor="middle" x="323.5" y="-99.8" font-family="Times,serif" font-size="14.00">CategoryService</text>
</g>
<!-- TopicModule -->
<g id="node3" class="node">
<title>TopicModule</title>
<polygon fill="#8dd3c7" stroke="black" points="289.71,-187 286.71,-191 265.71,-191 262.71,-187 197.29,-187 197.29,-151 289.71,-151 289.71,-187"/>
<text text-anchor="middle" x="243.5" y="-164.8" font-family="Times,serif" font-size="14.00">TopicModule</text>
</g>
<!-- CategoryService&#45;&gt;TopicModule -->
<g id="edge1" class="edge">
<title>CategoryService&#45;&gt;TopicModule</title>
<path fill="none" stroke="black" d="M268.86,-116.53C268.86,-116.53 268.86,-140.85 268.86,-140.85"/>
<polygon fill="black" stroke="black" points="265.36,-140.85 268.86,-150.85 272.36,-140.85 265.36,-140.85"/>
</g>
<!-- TopicsService -->
<g id="node2" class="node">
<title>TopicsService</title>
<ellipse fill="#fdb462" stroke="black" cx="163.5" cy="-104" rx="66.05" ry="18"/>
<text text-anchor="middle" x="163.5" y="-99.8" font-family="Times,serif" font-size="14.00">TopicsService</text>
</g>
<!-- TopicsService&#45;&gt;TopicModule -->
<g id="edge2" class="edge">
<title>TopicsService&#45;&gt;TopicModule</title>
<path fill="none" stroke="black" d="M213.59,-115.92C213.59,-115.92 213.59,-140.77 213.59,-140.77"/>
<polygon fill="black" stroke="black" points="210.09,-140.77 213.59,-150.77 217.09,-140.77 210.09,-140.77"/>
</g>
</g>
</svg>
