<?xml version="1.0" encoding="UTF-8" standalone="no"?>
<!DOCTYPE svg PUBLIC "-//W3C//DTD SVG 1.1//EN"
 "http://www.w3.org/Graphics/SVG/1.1/DTD/svg11.dtd">
<!-- Generated by graphviz version 2.47.0 (20210316.0004)
 -->
<!-- Title: dependencies Pages: 1 -->
<svg width="685pt" height="211pt"
 viewBox="0.00 0.00 685.00 211.00" xmlns="http://www.w3.org/2000/svg" xmlns:xlink="http://www.w3.org/1999/xlink">
<g id="graph0" class="graph" transform="scale(1 1) rotate(0) translate(4 207)">
<title>dependencies</title>
<polygon fill="white" stroke="transparent" points="-4,4 -4,-207 681,-207 681,4 -4,4"/>
<text text-anchor="start" x="317.51" y="-42.4" font-family="sans-serif" font-weight="bold" font-size="14.00">Legend</text>
<polygon fill="#ffffb3" stroke="transparent" points="104.5,-10 104.5,-30 124.5,-30 124.5,-10 104.5,-10"/>
<text text-anchor="start" x="128.13" y="-15.4" font-family="sans-serif" font-size="14.00"> &#160;Declarations</text>
<polygon fill="#8dd3c7" stroke="transparent" points="217.5,-10 217.5,-30 237.5,-30 237.5,-10 217.5,-10"/>
<text text-anchor="start" x="241.23" y="-15.4" font-family="sans-serif" font-size="14.00"> &#160;Module</text>
<polygon fill="#80b1d3" stroke="transparent" points="303.5,-10 303.5,-30 323.5,-30 323.5,-10 303.5,-10"/>
<text text-anchor="start" x="327.28" y="-15.4" font-family="sans-serif" font-size="14.00"> &#160;Bootstrap</text>
<polygon fill="#fdb462" stroke="transparent" points="400.5,-10 400.5,-30 420.5,-30 420.5,-10 400.5,-10"/>
<text text-anchor="start" x="424.17" y="-15.4" font-family="sans-serif" font-size="14.00"> &#160;Providers</text>
<polygon fill="#fb8072" stroke="transparent" points="496.5,-10 496.5,-30 516.5,-30 516.5,-10 496.5,-10"/>
<text text-anchor="start" x="520.23" y="-15.4" font-family="sans-serif" font-size="14.00"> &#160;Exports</text>
<g id="clust1" class="cluster">
<title>cluster_TopicModule</title>
<polygon fill="none" stroke="black" stroke-dasharray="1,5" points="8,-70 8,-195 669,-195 669,-70 8,-70"/>
</g>
<g id="clust6" class="cluster">
<title>cluster_TopicModule_providers</title>
<polygon fill="none" stroke="black" points="210,-78 210,-130 661,-130 661,-78 210,-78"/>
</g>
<g id="clust3" class="cluster">
<title>cluster_TopicModule_imports</title>
<polygon fill="none" stroke="black" points="16,-78 16,-130 202,-130 202,-78 16,-78"/>
</g>
<!-- SharedModule -->
<g id="node1" class="node">
<title>SharedModule</title>
<polygon fill="#8dd3c7" stroke="black" points="194.42,-122 191.42,-126 170.42,-126 167.42,-122 95.58,-122 95.58,-86 194.42,-86 194.42,-122"/>
<text text-anchor="middle" x="145" y="-99.8" font-family="Times,serif" font-size="14.00">SharedModule</text>
</g>
<!-- TopicModule -->
<g id="node3" class="node">
<title>TopicModule</title>
<polygon fill="#8dd3c7" stroke="black" points="322.21,-187 319.21,-191 298.21,-191 295.21,-187 229.79,-187 229.79,-151 322.21,-151 322.21,-187"/>
<text text-anchor="middle" x="276" y="-164.8" font-family="Times,serif" font-size="14.00">TopicModule</text>
</g>
<!-- SharedModule&#45;&gt;TopicModule -->
<g id="edge1" class="edge">
<title>SharedModule&#45;&gt;TopicModule</title>
<path fill="none" stroke="black" d="M145,-122.02C145,-139.37 145,-163 145,-163 145,-163 219.81,-163 219.81,-163"/>
<polygon fill="black" stroke="black" points="219.81,-166.5 229.81,-163 219.81,-159.5 219.81,-166.5"/>
</g>
<!-- User -->
<g id="node2" class="node">
<title>User</title>
<polygon fill="#8dd3c7" stroke="black" points="78,-122 75,-126 54,-126 51,-122 24,-122 24,-86 78,-86 78,-122"/>
<text text-anchor="middle" x="51" y="-99.8" font-family="Times,serif" font-size="14.00">User</text>
</g>
<!-- User&#45;&gt;TopicModule -->
<g id="edge2" class="edge">
<title>User&#45;&gt;TopicModule</title>
<path fill="none" stroke="black" d="M51,-122.28C51,-143.32 51,-175 51,-175 51,-175 219.65,-175 219.65,-175"/>
<polygon fill="black" stroke="black" points="219.65,-178.5 229.65,-175 219.65,-171.5 219.65,-178.5"/>
</g>
<!-- CategoryService -->
<g id="node4" class="node">
<title>CategoryService</title>
<ellipse fill="#fdb462" stroke="black" cx="578" cy="-104" rx="75.28" ry="18"/>
<text text-anchor="middle" x="578" y="-99.8" font-family="Times,serif" font-size="14.00">CategoryService</text>
</g>
<!-- CategoryService&#45;&gt;TopicModule -->
<g id="edge3" class="edge">
<title>CategoryService&#45;&gt;TopicModule</title>
<path fill="none" stroke="black" d="M578,-122.28C578,-143.32 578,-175 578,-175 578,-175 332.2,-175 332.2,-175"/>
<polygon fill="black" stroke="black" points="332.2,-171.5 322.2,-175 332.2,-178.5 332.2,-171.5"/>
</g>
<!-- TopicsService -->
<g id="node5" class="node">
<title>TopicsService</title>
<ellipse fill="#fdb462" stroke="black" cx="418" cy="-104" rx="66.05" ry="18"/>
<text text-anchor="middle" x="418" y="-99.8" font-family="Times,serif" font-size="14.00">TopicsService</text>
</g>
<!-- TopicsService&#45;&gt;TopicModule -->
<g id="edge4" class="edge">
<title>TopicsService&#45;&gt;TopicModule</title>
<path fill="none" stroke="black" d="M418,-122.02C418,-139.37 418,-163 418,-163 418,-163 332.5,-163 332.5,-163"/>
<polygon fill="black" stroke="black" points="332.5,-159.5 322.5,-163 332.5,-166.5 332.5,-159.5"/>
</g>
<!-- UserService -->
<g id="node6" class="node">
<title>UserService</title>
<ellipse fill="#fdb462" stroke="black" cx="276" cy="-104" rx="58.44" ry="18"/>
<text text-anchor="middle" x="276" y="-99.8" font-family="Times,serif" font-size="14.00">UserService</text>
</g>
<!-- UserService&#45;&gt;TopicModule -->
<g id="edge5" class="edge">
<title>UserService&#45;&gt;TopicModule</title>
<path fill="none" stroke="black" d="M276,-122.11C276,-122.11 276,-140.99 276,-140.99"/>
<polygon fill="black" stroke="black" points="272.5,-140.99 276,-150.99 279.5,-140.99 272.5,-140.99"/>
</g>
</g>
</svg>
