<?xml version="1.0" encoding="UTF-8" standalone="no"?>
<!DOCTYPE svg PUBLIC "-//W3C//DTD SVG 1.1//EN"
 "http://www.w3.org/Graphics/SVG/1.1/DTD/svg11.dtd">
<!-- Generated by graphviz version 2.44.1 (20200629.0846)
 -->
<!-- Title: dependencies Pages: 1 -->
<svg width="664pt" height="211pt"
 viewBox="0.00 0.00 664.00 211.00" xmlns="http://www.w3.org/2000/svg" xmlns:xlink="http://www.w3.org/1999/xlink">
<g id="graph0" class="graph" transform="scale(1 1) rotate(0) translate(4 207)">
<title>dependencies</title>
<polygon fill="white" stroke="transparent" points="-4,4 -4,-207 660,-207 660,4 -4,4"/>
<text text-anchor="start" x="307.01" y="-42.4" font-family="sans-serif" font-weight="bold" font-size="14.00">Legend</text>
<polygon fill="#ffffb3" stroke="transparent" points="94,-10 94,-30 114,-30 114,-10 94,-10"/>
<text text-anchor="start" x="117.63" y="-15.4" font-family="sans-serif" font-size="14.00"> &#160;Declarations</text>
<polygon fill="#8dd3c7" stroke="transparent" points="207,-10 207,-30 227,-30 227,-10 207,-10"/>
<text text-anchor="start" x="230.73" y="-15.4" font-family="sans-serif" font-size="14.00"> &#160;Module</text>
<polygon fill="#80b1d3" stroke="transparent" points="293,-10 293,-30 313,-30 313,-10 293,-10"/>
<text text-anchor="start" x="316.78" y="-15.4" font-family="sans-serif" font-size="14.00"> &#160;Bootstrap</text>
<polygon fill="#fdb462" stroke="transparent" points="390,-10 390,-30 410,-30 410,-10 390,-10"/>
<text text-anchor="start" x="413.67" y="-15.4" font-family="sans-serif" font-size="14.00"> &#160;Providers</text>
<polygon fill="#fb8072" stroke="transparent" points="486,-10 486,-30 506,-30 506,-10 486,-10"/>
<text text-anchor="start" x="509.73" y="-15.4" font-family="sans-serif" font-size="14.00"> &#160;Exports</text>
<g id="clust1" class="cluster">
<title>cluster_CommentsModule</title>
<polygon fill="none" stroke="black" stroke-dasharray="1,5" points="8,-70 8,-195 648,-195 648,-70 8,-70"/>
</g>
<g id="clust6" class="cluster">
<title>cluster_CommentsModule_providers</title>
<polygon fill="none" stroke="black" points="16,-78 16,-130 640,-130 640,-78 16,-78"/>
</g>
<!-- CategoryService -->
<g id="node1" class="node">
<title>CategoryService</title>
<ellipse fill="#fdb462" stroke="black" cx="557" cy="-104" rx="75.28" ry="18"/>
<text text-anchor="middle" x="557" y="-99.8" font-family="Times,serif" font-size="14.00">CategoryService</text>
</g>
<!-- CommentsModule -->
<g id="node5" class="node">
<title>CommentsModule</title>
<polygon fill="#8dd3c7" stroke="black" points="365.22,-187 362.22,-191 341.22,-191 338.22,-187 244.78,-187 244.78,-151 365.22,-151 365.22,-187"/>
<text text-anchor="middle" x="305" y="-164.8" font-family="Times,serif" font-size="14.00">CommentsModule</text>
</g>
<!-- CategoryService&#45;&gt;CommentsModule -->
<g id="edge1" class="edge">
<title>CategoryService&#45;&gt;CommentsModule</title>
<path fill="none" stroke="black" d="M557,-122.11C557,-141.34 557,-169 557,-169 557,-169 375.36,-169 375.36,-169"/>
<polygon fill="black" stroke="black" points="375.36,-165.5 365.36,-169 375.36,-172.5 375.36,-165.5"/>
</g>
<!-- CommentService -->
<g id="node2" class="node">
<title>CommentService</title>
<ellipse fill="#fdb462" stroke="black" cx="386" cy="-104" rx="78.17" ry="18"/>
<text text-anchor="middle" x="386" y="-99.8" font-family="Times,serif" font-size="14.00">CommentService</text>
</g>
<!-- CommentService&#45;&gt;CommentsModule -->
<g id="edge2" class="edge">
<title>CommentService&#45;&gt;CommentsModule</title>
<path fill="none" stroke="black" d="M336.51,-118.1C336.51,-118.1 336.51,-140.72 336.51,-140.72"/>
<polygon fill="black" stroke="black" points="333.01,-140.72 336.51,-150.72 340.01,-140.72 333.01,-140.72"/>
</g>
<!-- TopicsService -->
<g id="node3" class="node">
<title>TopicsService</title>
<ellipse fill="#fdb462" stroke="black" cx="224" cy="-104" rx="66.05" ry="18"/>
<text text-anchor="middle" x="224" y="-99.8" font-family="Times,serif" font-size="14.00">TopicsService</text>
</g>
<!-- TopicsService&#45;&gt;CommentsModule -->
<g id="edge3" class="edge">
<title>TopicsService&#45;&gt;CommentsModule</title>
<path fill="none" stroke="black" d="M267.58,-117.78C267.58,-117.78 267.58,-140.55 267.58,-140.55"/>
<polygon fill="black" stroke="black" points="264.08,-140.55 267.58,-150.55 271.08,-140.55 264.08,-140.55"/>
</g>
<!-- UserService -->
<g id="node4" class="node">
<title>UserService</title>
<ellipse fill="#fdb462" stroke="black" cx="82" cy="-104" rx="58.44" ry="18"/>
<text text-anchor="middle" x="82" y="-99.8" font-family="Times,serif" font-size="14.00">UserService</text>
</g>
<!-- UserService&#45;&gt;CommentsModule -->
<g id="edge4" class="edge">
<title>UserService&#45;&gt;CommentsModule</title>
<path fill="none" stroke="black" d="M82,-122.11C82,-141.34 82,-169 82,-169 82,-169 234.65,-169 234.65,-169"/>
<polygon fill="black" stroke="black" points="234.65,-172.5 244.65,-169 234.65,-165.5 234.65,-172.5"/>
</g>
</g>
</svg>
