<?xml version="1.0" encoding="UTF-8" standalone="no"?>
<!DOCTYPE svg PUBLIC "-//W3C//DTD SVG 1.1//EN"
 "http://www.w3.org/Graphics/SVG/1.1/DTD/svg11.dtd">
<!-- Generated by graphviz version 2.47.0 (20210316.0004)
 -->
<!-- Title: dependencies Pages: 1 -->
<svg width="786pt" height="211pt"
 viewBox="0.00 0.00 786.00 211.00" xmlns="http://www.w3.org/2000/svg" xmlns:xlink="http://www.w3.org/1999/xlink">
<g id="graph0" class="graph" transform="scale(1 1) rotate(0) translate(4 207)">
<title>dependencies</title>
<polygon fill="white" stroke="transparent" points="-4,4 -4,-207 782,-207 782,4 -4,4"/>
<text text-anchor="start" x="368.01" y="-42.4" font-family="sans-serif" font-weight="bold" font-size="14.00">Legend</text>
<polygon fill="#ffffb3" stroke="transparent" points="155,-10 155,-30 175,-30 175,-10 155,-10"/>
<text text-anchor="start" x="178.63" y="-15.4" font-family="sans-serif" font-size="14.00"> &#160;Declarations</text>
<polygon fill="#8dd3c7" stroke="transparent" points="268,-10 268,-30 288,-30 288,-10 268,-10"/>
<text text-anchor="start" x="291.73" y="-15.4" font-family="sans-serif" font-size="14.00"> &#160;Module</text>
<polygon fill="#80b1d3" stroke="transparent" points="354,-10 354,-30 374,-30 374,-10 354,-10"/>
<text text-anchor="start" x="377.78" y="-15.4" font-family="sans-serif" font-size="14.00"> &#160;Bootstrap</text>
<polygon fill="#fdb462" stroke="transparent" points="451,-10 451,-30 471,-30 471,-10 451,-10"/>
<text text-anchor="start" x="474.67" y="-15.4" font-family="sans-serif" font-size="14.00"> &#160;Providers</text>
<polygon fill="#fb8072" stroke="transparent" points="547,-10 547,-30 567,-30 567,-10 547,-10"/>
<text text-anchor="start" x="570.73" y="-15.4" font-family="sans-serif" font-size="14.00"> &#160;Exports</text>
<g id="clust1" class="cluster">
<title>cluster_CommentsModule</title>
<polygon fill="none" stroke="black" stroke-dasharray="1,5" points="8,-70 8,-195 770,-195 770,-70 8,-70"/>
</g>
<g id="clust3" class="cluster">
<title>cluster_CommentsModule_imports</title>
<polygon fill="none" stroke="black" points="648,-78 648,-130 762,-130 762,-78 648,-78"/>
</g>
<g id="clust6" class="cluster">
<title>cluster_CommentsModule_providers</title>
<polygon fill="none" stroke="black" points="16,-78 16,-130 640,-130 640,-78 16,-78"/>
</g>
<!-- SharedModule -->
<g id="node1" class="node">
<title>SharedModule</title>
<polygon fill="#8dd3c7" stroke="black" points="754.42,-122 751.42,-126 730.42,-126 727.42,-122 655.58,-122 655.58,-86 754.42,-86 754.42,-122"/>
<text text-anchor="middle" x="705" y="-99.8" font-family="Times,serif" font-size="14.00">SharedModule</text>
</g>
<!-- CommentsModule -->
<g id="node2" class="node">
<title>CommentsModule</title>
<polygon fill="#8dd3c7" stroke="black" points="446.22,-187 443.22,-191 422.22,-191 419.22,-187 325.78,-187 325.78,-151 446.22,-151 446.22,-187"/>
<text text-anchor="middle" x="386" y="-164.8" font-family="Times,serif" font-size="14.00">CommentsModule</text>
</g>
<!-- SharedModule&#45;&gt;CommentsModule -->
<g id="edge1" class="edge">
<title>SharedModule&#45;&gt;CommentsModule</title>
<path fill="none" stroke="black" d="M705,-122.28C705,-143.32 705,-175 705,-175 705,-175 456.38,-175 456.38,-175"/>
<polygon fill="black" stroke="black" points="456.38,-171.5 446.38,-175 456.38,-178.5 456.38,-171.5"/>
</g>
<!-- CategoryService -->
<g id="node3" class="node">
<title>CategoryService</title>
<ellipse fill="#fdb462" stroke="black" cx="557" cy="-104" rx="75.28" ry="18"/>
<text text-anchor="middle" x="557" y="-99.8" font-family="Times,serif" font-size="14.00">CategoryService</text>
</g>
<!-- CategoryService&#45;&gt;CommentsModule -->
<g id="edge2" class="edge">
<title>CategoryService&#45;&gt;CommentsModule</title>
<path fill="none" stroke="black" d="M557,-122.02C557,-139.37 557,-163 557,-163 557,-163 456.29,-163 456.29,-163"/>
<polygon fill="black" stroke="black" points="456.29,-159.5 446.29,-163 456.29,-166.5 456.29,-159.5"/>
</g>
<!-- CommentService -->
<g id="node4" class="node">
<title>CommentService</title>
<ellipse fill="#fdb462" stroke="black" cx="386" cy="-104" rx="78.17" ry="18"/>
<text text-anchor="middle" x="386" y="-99.8" font-family="Times,serif" font-size="14.00">CommentService</text>
</g>
<!-- CommentService&#45;&gt;CommentsModule -->
<g id="edge3" class="edge">
<title>CommentService&#45;&gt;CommentsModule</title>
<path fill="none" stroke="black" d="M386,-122.11C386,-122.11 386,-140.99 386,-140.99"/>
<polygon fill="black" stroke="black" points="382.5,-140.99 386,-150.99 389.5,-140.99 382.5,-140.99"/>
</g>
<!-- TopicsService -->
<g id="node5" class="node">
<title>TopicsService</title>
<ellipse fill="#fdb462" stroke="black" cx="224" cy="-104" rx="66.05" ry="18"/>
<text text-anchor="middle" x="224" y="-99.8" font-family="Times,serif" font-size="14.00">TopicsService</text>
</g>
<!-- TopicsService&#45;&gt;CommentsModule -->
<g id="edge4" class="edge">
<title>TopicsService&#45;&gt;CommentsModule</title>
<path fill="none" stroke="black" d="M224,-122.02C224,-139.37 224,-163 224,-163 224,-163 315.68,-163 315.68,-163"/>
<polygon fill="black" stroke="black" points="315.68,-166.5 325.68,-163 315.68,-159.5 315.68,-166.5"/>
</g>
<!-- UserService -->
<g id="node6" class="node">
<title>UserService</title>
<ellipse fill="#fdb462" stroke="black" cx="82" cy="-104" rx="58.44" ry="18"/>
<text text-anchor="middle" x="82" y="-99.8" font-family="Times,serif" font-size="14.00">UserService</text>
</g>
<!-- UserService&#45;&gt;CommentsModule -->
<g id="edge5" class="edge">
<title>UserService&#45;&gt;CommentsModule</title>
<path fill="none" stroke="black" d="M82,-122.28C82,-143.32 82,-175 82,-175 82,-175 315.58,-175 315.58,-175"/>
<polygon fill="black" stroke="black" points="315.58,-178.5 325.58,-175 315.58,-171.5 315.58,-178.5"/>
</g>
</g>
</svg>
