<?xml version="1.0" encoding="UTF-8" standalone="no"?>
<!DOCTYPE svg PUBLIC "-//W3C//DTD SVG 1.1//EN"
 "http://www.w3.org/Graphics/SVG/1.1/DTD/svg11.dtd">
<!-- Generated by graphviz version 2.44.1 (20200629.0846)
 -->
<!-- Title: dependencies Pages: 1 -->
<svg width="1001pt" height="363pt"
 viewBox="0.00 0.00 1001.00 363.00" xmlns="http://www.w3.org/2000/svg" xmlns:xlink="http://www.w3.org/1999/xlink">
<g id="graph0" class="graph" transform="scale(1 1) rotate(0) translate(4 359)">
<title>dependencies</title>
<polygon fill="white" stroke="transparent" points="-4,4 -4,-359 997,-359 997,4 -4,4"/>
<text text-anchor="start" x="475.51" y="-42.4" font-family="sans-serif" font-weight="bold" font-size="14.00">Legend</text>
<polygon fill="#ffffb3" stroke="transparent" points="262.5,-10 262.5,-30 282.5,-30 282.5,-10 262.5,-10"/>
<text text-anchor="start" x="286.13" y="-15.4" font-family="sans-serif" font-size="14.00"> &#160;Declarations</text>
<polygon fill="#8dd3c7" stroke="transparent" points="375.5,-10 375.5,-30 395.5,-30 395.5,-10 375.5,-10"/>
<text text-anchor="start" x="399.23" y="-15.4" font-family="sans-serif" font-size="14.00"> &#160;Module</text>
<polygon fill="#80b1d3" stroke="transparent" points="461.5,-10 461.5,-30 481.5,-30 481.5,-10 461.5,-10"/>
<text text-anchor="start" x="485.28" y="-15.4" font-family="sans-serif" font-size="14.00"> &#160;Bootstrap</text>
<polygon fill="#fdb462" stroke="transparent" points="558.5,-10 558.5,-30 578.5,-30 578.5,-10 558.5,-10"/>
<text text-anchor="start" x="582.17" y="-15.4" font-family="sans-serif" font-size="14.00"> &#160;Providers</text>
<polygon fill="#fb8072" stroke="transparent" points="654.5,-10 654.5,-30 674.5,-30 674.5,-10 654.5,-10"/>
<text text-anchor="start" x="678.23" y="-15.4" font-family="sans-serif" font-size="14.00"> &#160;Exports</text>
<g id="clust1" class="cluster">
<title>cluster_AppModule</title>
<polygon fill="none" stroke="black" stroke-dasharray="1,5" points="447,-146 447,-347 813,-347 813,-146 447,-146"/>
</g>
<g id="clust3" class="cluster">
<title>cluster_AppModule_imports</title>
<polygon fill="none" stroke="black" points="455,-154 455,-282 805,-282 805,-154 455,-154"/>
</g>
<g id="clust7" class="cluster">
<title>cluster_AuthModule</title>
<polygon fill="none" stroke="black" stroke-dasharray="1,5" points="8,-146 8,-214 439,-214 439,-146 8,-146"/>
</g>
<g id="clust12" class="cluster">
<title>cluster_AuthModule_providers</title>
<polygon fill="none" stroke="black" points="16,-154 16,-206 431,-206 431,-154 16,-154"/>
</g>
<g id="clust13" class="cluster">
<title>cluster_CategoryModule</title>
<polygon fill="none" stroke="black" stroke-dasharray="1,5" points="323,-70 323,-138 505,-138 505,-70 323,-70"/>
</g>
<g id="clust18" class="cluster">
<title>cluster_CategoryModule_providers</title>
<polygon fill="none" stroke="black" points="331,-78 331,-130 497,-130 497,-78 331,-78"/>
</g>
<g id="clust19" class="cluster">
<title>cluster_CommentsModule</title>
<polygon fill="none" stroke="black" stroke-dasharray="1,5" points="513,-70 513,-138 985,-138 985,-70 513,-70"/>
</g>
<g id="clust24" class="cluster">
<title>cluster_CommentsModule_providers</title>
<polygon fill="none" stroke="black" points="521,-78 521,-130 977,-130 977,-78 521,-78"/>
</g>
<g id="clust31" class="cluster">
<title>cluster_UserModule</title>
<polygon fill="none" stroke="black" stroke-dasharray="1,5" points="821,-222 821,-290 941,-290 941,-222 821,-222"/>
</g>
<g id="clust34" class="cluster">
<title>cluster_UserModule_exports</title>
<polygon fill="none" stroke="black" points="829,-230 829,-282 933,-282 933,-230 829,-230"/>
</g>
<!-- AuthModule -->
<g id="node1" class="node">
<title>AuthModule</title>
<polygon fill="#8dd3c7" stroke="black" points="678.55,-274 675.55,-278 654.55,-278 651.55,-274 591.45,-274 591.45,-238 678.55,-238 678.55,-274"/>
<text text-anchor="middle" x="635" y="-251.8" font-family="Times,serif" font-size="14.00">AuthModule</text>
</g>
<!-- AppModule -->
<g id="node6" class="node">
<title>AppModule</title>
<polygon fill="#8dd3c7" stroke="black" points="739.66,-339 736.66,-343 715.66,-343 712.66,-339 656.34,-339 656.34,-303 739.66,-303 739.66,-339"/>
<text text-anchor="middle" x="698" y="-316.8" font-family="Times,serif" font-size="14.00">AppModule</text>
</g>
<!-- AuthModule&#45;&gt;AppModule -->
<g id="edge1" class="edge">
<title>AuthModule&#45;&gt;AppModule</title>
<path fill="none" stroke="black" d="M667.47,-274.11C667.47,-274.11 667.47,-292.99 667.47,-292.99"/>
<polygon fill="black" stroke="black" points="663.97,-292.99 667.47,-302.99 670.97,-292.99 663.97,-292.99"/>
</g>
<!-- CategoryModule -->
<g id="node2" class="node">
<title>CategoryModule</title>
<polygon fill="#8dd3c7" stroke="black" points="573.37,-274 570.37,-278 549.37,-278 546.37,-274 462.63,-274 462.63,-238 573.37,-238 573.37,-274"/>
<text text-anchor="middle" x="518" y="-251.8" font-family="Times,serif" font-size="14.00">CategoryModule</text>
</g>
<!-- CategoryModule&#45;&gt;AppModule -->
<g id="edge2" class="edge">
<title>CategoryModule&#45;&gt;AppModule</title>
<path fill="none" stroke="black" d="M518,-274.28C518,-295.32 518,-327 518,-327 518,-327 646.25,-327 646.25,-327"/>
<polygon fill="black" stroke="black" points="646.25,-330.5 656.25,-327 646.25,-323.5 646.25,-330.5"/>
</g>
<!-- CommentsModule -->
<g id="node3" class="node">
<title>CommentsModule</title>
<polygon fill="#8dd3c7" stroke="black" points="797.22,-198 794.22,-202 773.22,-202 770.22,-198 676.78,-198 676.78,-162 797.22,-162 797.22,-198"/>
<text text-anchor="middle" x="737" y="-175.8" font-family="Times,serif" font-size="14.00">CommentsModule</text>
</g>
<!-- CommentsModule&#45;&gt;AppModule -->
<g id="edge3" class="edge">
<title>CommentsModule&#45;&gt;AppModule</title>
<path fill="none" stroke="black" d="M719.48,-198.14C719.48,-198.14 719.48,-292.93 719.48,-292.93"/>
<polygon fill="black" stroke="black" points="715.98,-292.92 719.48,-302.93 722.98,-292.93 715.98,-292.92"/>
</g>
<!-- TopicModule -->
<g id="node4" class="node">
<title>TopicModule</title>
<polygon fill="#8dd3c7" stroke="black" points="555.21,-198 552.21,-202 531.21,-202 528.21,-198 462.79,-198 462.79,-162 555.21,-162 555.21,-198"/>
<text text-anchor="middle" x="509" y="-175.8" font-family="Times,serif" font-size="14.00">TopicModule</text>
</g>
<!-- TopicModule&#45;&gt;CategoryModule -->
<g id="edge10" class="edge">
<title>TopicModule&#45;&gt;CategoryModule</title>
<path fill="none" stroke="black" d="M493.63,-198.01C493.63,-198.01 493.63,-227.85 493.63,-227.85"/>
<polygon fill="black" stroke="black" points="490.13,-227.85 493.63,-237.85 497.13,-227.85 490.13,-227.85"/>
</g>
<!-- TopicModule&#45;&gt;AppModule -->
<g id="edge4" class="edge">
<title>TopicModule&#45;&gt;AppModule</title>
<path fill="none" stroke="black" d="M524.37,-198.24C524.37,-205.43 524.37,-212 524.37,-212 524.37,-212 699.13,-212 699.13,-212 699.13,-212 699.13,-292.51 699.13,-292.51"/>
<polygon fill="black" stroke="black" points="695.63,-292.51 699.13,-302.51 702.63,-292.51 695.63,-292.51"/>
</g>
<!-- UserModule -->
<g id="node5" class="node">
<title>UserModule</title>
<polygon fill="#8dd3c7" stroke="black" points="658.98,-198 655.98,-202 634.98,-202 631.98,-198 573.02,-198 573.02,-162 658.98,-162 658.98,-198"/>
<text text-anchor="middle" x="616" y="-175.8" font-family="Times,serif" font-size="14.00">UserModule</text>
</g>
<!-- UserModule&#45;&gt;AuthModule -->
<g id="edge6" class="edge">
<title>UserModule&#45;&gt;AuthModule</title>
<path fill="none" stroke="black" d="M636.4,-198.01C636.4,-198.01 636.4,-227.85 636.4,-227.85"/>
<polygon fill="black" stroke="black" points="632.9,-227.85 636.4,-237.85 639.9,-227.85 632.9,-227.85"/>
</g>
<!-- UserModule&#45;&gt;AppModule -->
<g id="edge5" class="edge">
<title>UserModule&#45;&gt;AppModule</title>
<path fill="none" stroke="black" d="M582.33,-198.21C582.33,-235.06 582.33,-315 582.33,-315 582.33,-315 646.24,-315 646.24,-315"/>
<polygon fill="black" stroke="black" points="646.24,-318.5 656.24,-315 646.24,-311.5 646.24,-318.5"/>
</g>
<!-- UserService  -->
<g id="node14" class="node">
<title>UserService </title>
<polygon fill="#fb8072" stroke="black" points="924.9,-274 837.1,-274 837.1,-238 924.9,-238 924.9,-274"/>
<text text-anchor="middle" x="881" y="-251.8" font-family="Times,serif" font-size="14.00">UserService </text>
</g>
<!-- UserModule&#45;&gt;UserService  -->
<g id="edge19" class="edge">
<title>UserModule&#45;&gt;UserService </title>
<path fill="none" stroke="black" stroke-dasharray="5,2" d="M647.69,-198.17C647.69,-202.05 647.69,-205 647.69,-205 647.69,-205 881,-205 881,-205 881,-205 881,-227.88 881,-227.88"/>
<polygon fill="black" stroke="black" points="877.5,-227.88 881,-237.88 884.5,-227.88 877.5,-227.88"/>
</g>
<!-- AuthService -->
<g id="node7" class="node">
<title>AuthService</title>
<ellipse fill="#fdb462" stroke="black" cx="83" cy="-180" rx="59.11" ry="18"/>
<text text-anchor="middle" x="83" y="-175.8" font-family="Times,serif" font-size="14.00">AuthService</text>
</g>
<!-- AuthService&#45;&gt;AuthModule -->
<g id="edge7" class="edge">
<title>AuthService&#45;&gt;AuthModule</title>
<path fill="none" stroke="black" d="M83,-198.19C83,-213.18 83,-232 83,-232 83,-232 602.52,-232 602.52,-232 602.52,-232 602.52,-232.58 602.52,-232.58"/>
<polygon fill="black" stroke="black" points="599.02,-227.81 602.52,-237.81 606.02,-227.81 599.02,-227.81"/>
</g>
<!-- JwtStrategy -->
<g id="node8" class="node">
<title>JwtStrategy</title>
<ellipse fill="#fdb462" stroke="black" cx="366" cy="-180" rx="56.76" ry="18"/>
<text text-anchor="middle" x="366" y="-175.8" font-family="Times,serif" font-size="14.00">JwtStrategy</text>
</g>
<!-- JwtStrategy&#45;&gt;AuthModule -->
<g id="edge8" class="edge">
<title>JwtStrategy&#45;&gt;AuthModule</title>
<path fill="none" stroke="black" d="M366,-198.11C366,-207.9 366,-218 366,-218 366,-218 625.11,-218 625.11,-218 625.11,-218 625.11,-227.89 625.11,-227.89"/>
<polygon fill="black" stroke="black" points="621.61,-227.89 625.11,-237.89 628.61,-227.89 621.61,-227.89"/>
</g>
<!-- LocalStrategy -->
<g id="node9" class="node">
<title>LocalStrategy</title>
<ellipse fill="#fdb462" stroke="black" cx="226" cy="-180" rx="65.41" ry="18"/>
<text text-anchor="middle" x="226" y="-175.8" font-family="Times,serif" font-size="14.00">LocalStrategy</text>
</g>
<!-- LocalStrategy&#45;&gt;AuthModule -->
<g id="edge9" class="edge">
<title>LocalStrategy&#45;&gt;AuthModule</title>
<path fill="none" stroke="black" d="M226,-198.04C226,-210.56 226,-225 226,-225 226,-225 613.81,-225 613.81,-225 613.81,-225 613.81,-227.97 613.81,-227.97"/>
<polygon fill="black" stroke="black" points="610.31,-227.97 613.81,-237.97 617.31,-227.97 610.31,-227.97"/>
</g>
<!-- CategoryService -->
<g id="node10" class="node">
<title>CategoryService</title>
<ellipse fill="#fdb462" stroke="black" cx="414" cy="-104" rx="75.28" ry="18"/>
<text text-anchor="middle" x="414" y="-99.8" font-family="Times,serif" font-size="14.00">CategoryService</text>
</g>
<!-- CategoryService&#45;&gt;CategoryModule -->
<g id="edge11" class="edge">
<title>CategoryService&#45;&gt;CategoryModule</title>
<path fill="none" stroke="black" d="M449.25,-120.02C449.25,-160.19 449.25,-262 449.25,-262 449.25,-262 452.51,-262 452.51,-262"/>
<polygon fill="black" stroke="black" points="452.51,-265.5 462.51,-262 452.51,-258.5 452.51,-265.5"/>
</g>
<!-- CategoryService&#45;&gt;CategoryModule -->
<g id="edge12" class="edge">
<title>CategoryService&#45;&gt;CategoryModule</title>
<path fill="none" stroke="black" d="M435.94,-121.32C435.94,-160 435.94,-250 435.94,-250 435.94,-250 452.36,-250 452.36,-250"/>
<polygon fill="black" stroke="black" points="452.36,-253.5 462.36,-250 452.36,-246.5 452.36,-253.5"/>
</g>
<!-- CategoryService&#45;&gt;CommentsModule -->
<g id="edge13" class="edge">
<title>CategoryService&#45;&gt;CommentsModule</title>
<path fill="none" stroke="black" d="M482.77,-111.42C482.77,-120.88 482.77,-136 482.77,-136 482.77,-136 717.59,-136 717.59,-136 717.59,-136 717.59,-151.85 717.59,-151.85"/>
<polygon fill="black" stroke="black" points="714.09,-151.85 717.59,-161.85 721.09,-151.85 714.09,-151.85"/>
</g>
<!-- CategoryService&#45;&gt;TopicModule -->
<g id="edge17" class="edge">
<title>CategoryService&#45;&gt;TopicModule</title>
<path fill="none" stroke="black" d="M469.52,-116.21C469.52,-116.21 469.52,-151.86 469.52,-151.86"/>
<polygon fill="black" stroke="black" points="466.02,-151.86 469.52,-161.86 473.02,-151.86 466.02,-151.86"/>
</g>
<!-- CategoryService&#45;&gt;UserModule -->
<g id="edge20" class="edge">
<title>CategoryService&#45;&gt;UserModule</title>
<path fill="none" stroke="black" d="M476.14,-114.44C476.14,-127.73 476.14,-149 476.14,-149 476.14,-149 601.67,-149 601.67,-149 601.67,-149 601.67,-151.97 601.67,-151.97"/>
<polygon fill="black" stroke="black" points="598.17,-151.97 601.67,-161.97 605.17,-151.97 598.17,-151.97"/>
</g>
<!-- CommentService -->
<g id="node11" class="node">
<title>CommentService</title>
<ellipse fill="#fdb462" stroke="black" cx="891" cy="-104" rx="78.17" ry="18"/>
<text text-anchor="middle" x="891" y="-99.8" font-family="Times,serif" font-size="14.00">CommentService</text>
</g>
<!-- CommentService&#45;&gt;CommentsModule -->
<g id="edge14" class="edge">
<title>CommentService&#45;&gt;CommentsModule</title>
<path fill="none" stroke="black" d="M824.98,-113.63C824.98,-134.08 824.98,-180 824.98,-180 824.98,-180 807.14,-180 807.14,-180"/>
<polygon fill="black" stroke="black" points="807.14,-176.5 797.14,-180 807.14,-183.5 807.14,-176.5"/>
</g>
<!-- TopicsService -->
<g id="node12" class="node">
<title>TopicsService</title>
<ellipse fill="#fdb462" stroke="black" cx="595" cy="-104" rx="66.05" ry="18"/>
<text text-anchor="middle" x="595" y="-99.8" font-family="Times,serif" font-size="14.00">TopicsService</text>
</g>
<!-- TopicsService&#45;&gt;CommentsModule -->
<g id="edge15" class="edge">
<title>TopicsService&#45;&gt;CommentsModule</title>
<path fill="none" stroke="black" d="M657.72,-110C663.06,-110 666.48,-110 666.48,-110 666.48,-110 666.48,-186 666.48,-186 666.48,-186 667.52,-186 667.52,-186"/>
<polygon fill="black" stroke="black" points="666.89,-189.5 676.89,-186 666.89,-182.5 666.89,-189.5"/>
</g>
<!-- TopicsService&#45;&gt;TopicModule -->
<g id="edge18" class="edge">
<title>TopicsService&#45;&gt;TopicModule</title>
<path fill="none" stroke="black" d="M541.91,-114.89C541.91,-114.89 541.91,-151.79 541.91,-151.79"/>
<polygon fill="black" stroke="black" points="538.41,-151.79 541.91,-161.79 545.41,-151.79 538.41,-151.79"/>
</g>
<!-- TopicsService&#45;&gt;UserModule -->
<g id="edge21" class="edge">
<title>TopicsService&#45;&gt;UserModule</title>
<path fill="none" stroke="black" d="M630.33,-119.38C630.33,-119.38 630.33,-151.97 630.33,-151.97"/>
<polygon fill="black" stroke="black" points="626.83,-151.97 630.33,-161.97 633.83,-151.97 626.83,-151.97"/>
</g>
<!-- UserService -->
<g id="node13" class="node">
<title>UserService</title>
<ellipse fill="#fdb462" stroke="black" cx="737" cy="-104" rx="58.44" ry="18"/>
<text text-anchor="middle" x="737" y="-99.8" font-family="Times,serif" font-size="14.00">UserService</text>
</g>
<!-- UserService&#45;&gt;CommentsModule -->
<g id="edge16" class="edge">
<title>UserService&#45;&gt;CommentsModule</title>
<path fill="none" stroke="black" d="M756.41,-121.25C756.41,-121.25 756.41,-151.76 756.41,-151.76"/>
<polygon fill="black" stroke="black" points="752.91,-151.76 756.41,-161.76 759.91,-151.76 752.91,-151.76"/>
</g>
<!-- UserService&#45;&gt;UserModule -->
<g id="edge22" class="edge">
<title>UserService&#45;&gt;UserModule</title>
<path fill="none" stroke="black" d="M681.89,-98C675.77,-98 671.69,-98 671.69,-98 671.69,-98 671.69,-174 671.69,-174 671.69,-174 669.05,-174 669.05,-174"/>
<polygon fill="black" stroke="black" points="669.05,-170.5 659.05,-174 669.05,-177.5 669.05,-170.5"/>
</g>
</g>
</svg>
